<svg id="visual" viewBox="0 0 900 600" width="900" height="600" xmlns="http://www.w3.org/2000/svg" xmlns:xlink="http://www.w3.org/1999/xlink" version="1.1"><path d="M0 103L82 67L164 97L245 55L327 103L409 91L491 61L573 61L655 37L736 43L818 91L900 61L900 0L818 0L736 0L655 0L573 0L491 0L409 0L327 0L245 0L164 0L82 0L0 0Z" fill="#00cc8e"></path><path d="M0 151L82 169L164 211L245 115L327 175L409 205L491 139L573 169L655 139L736 157L818 205L900 163L900 59L818 89L736 41L655 35L573 59L491 59L409 89L327 101L245 53L164 95L82 65L0 101Z" fill="#00b98a"></path><path d="M0 355L82 289L164 289L245 361L327 331L409 355L491 295L573 373L655 409L736 247L818 361L900 313L900 161L818 203L736 155L655 137L573 167L491 137L409 203L327 173L245 113L164 209L82 167L0 149Z" fill="#00a784"></path><path d="M0 487L82 343L164 409L245 499L327 391L409 421L491 355L573 427L655 463L736 361L818 499L900 427L900 311L818 359L736 245L655 407L573 371L491 293L409 353L327 329L245 359L164 287L82 287L0 353Z" fill="#00957c"></path><path d="M0 601L82 601L164 601L245 601L327 601L409 601L491 601L573 601L655 601L736 601L818 601L900 601L900 425L818 497L736 359L655 461L573 425L491 353L409 419L327 389L245 497L164 407L82 341L0 485Z" fill="#038373"></path></svg>